<?xml version="1.0" standalone="no"?>
<!DOCTYPE svg PUBLIC "-//W3C//DTD SVG 20010904//EN"
 "http://www.w3.org/TR/2001/REC-SVG-20010904/DTD/svg10.dtd">
<svg version="1.0" xmlns="http://www.w3.org/2000/svg"
 width="227.000000pt" height="227.000000pt" viewBox="0 0 227.000000 227.000000"
 preserveAspectRatio="xMidYMid meet">
<metadata>
Created by potrace 1.11, written by Peter Selinger 2001-2013
</metadata>
<g transform="translate(0.000000,227.000000) scale(0.100000,-0.100000)"
fill="#000000" stroke="none">
<path d="M1030 2263 c-397 -64 -713 -437 -787 -928 -15 -104 -6 -446 14 -478
3 -4 7 -23 10 -40 18 -118 123 -346 211 -461 40 -52 131 -147 174 -181 36 -30
108 -75 117 -75 6 0 11 -4 11 -10 0 -5 9 -10 20 -10 11 0 20 -5 20 -10 0 -6 3
-9 8 -8 4 0 15 -2 25 -5 33 -13 52 -20 62 -23 85 -29 250 -40 342 -23 26 5 57
11 68 13 32 6 123 44 174 72 162 91 311 250 401 432 41 82 85 203 101 277 7
33 14 67 16 75 24 106 25 360 2 493 -17 101 -64 257 -96 319 -7 15 -13 29 -12
30 2 4 -73 132 -80 138 -4 3 -18 23 -33 45 -50 76 -217 235 -247 235 -6 0 -11
4 -11 9 0 5 -14 14 -32 20 -17 6 -40 19 -50 28 -10 9 -18 13 -18 10 0 -3 -20
3 -45 14 -84 37 -265 58 -365 42z"/>
</g>
</svg>
